<mxfile host="app.diagrams.net" modified="2023-06-20T14:08:16.822Z" agent="Mozilla/5.0 (Windows NT 10.0; Win64; x64) AppleWebKit/537.36 (KHTML, like Gecko) Chrome/114.0.0.0 Safari/537.36" version="21.3.5" etag="lG40Fk2cA_0q1xqpOlMM" type="github">
  <diagram name="Page-1" id="nPPPCsq9AZCrfdsF3WAU">
    <mxGraphModel>
      <root>
        <mxCell id="0" />
        <mxCell id="1" parent="0" />
      </root>
    </mxGraphModel>
  </diagram>
</mxfile>
